# This file uses centimeters as units for non-parametric coordinates.

mtllib cone_avgVN.mtl
g default
v 0.893734 -3.217084 -1.547991
v -0.893733 -3.217084 -1.547992
v -1.787467 -3.217084 -0.000000
v -0.893734 -3.217084 1.547992
v 0.893733 -3.217084 1.547992
v 1.787467 -3.217084 0.000000
v 0.000000 3.217084 0.000000
vt 0.625000 0.033494
vt 0.375000 0.033494
vt 0.250000 0.250000
vt 0.375000 0.466506
vt 0.625000 0.466506
vt 0.750000 0.250000
vt 0.250000 0.500000
vt 0.333333 0.500000
vt 0.416667 0.500000
vt 0.500000 0.500000
vt 0.583333 0.500000
vt 0.666667 0.500000
vt 0.750000 0.500000
vt 0.500000 1.000000
vn 0.476760 -0.301328 -0.825773
vn 0.953521 -0.301328 0.000000
vn 0.476760 -0.301328 0.825773
vn -0.476760 -0.301328 0.825773
vn -0.953521 -0.301328 -0.000000
vn -0.476760 -0.301328 -0.825773
vn 0.476760 -0.301328 -0.825773
vn -0.476760 -0.301328 -0.825773
vn 0.000000 1.000000 0.000000
vn -0.476760 -0.301328 -0.825773
vn -0.953521 -0.301328 -0.000000
vn 0.000000 1.000000 0.000000
vn -0.953521 -0.301328 -0.000000
vn -0.476760 -0.301328 0.825773
vn 0.000000 1.000000 0.000000
vn -0.476760 -0.301328 0.825773
vn 0.476760 -0.301328 0.825773
vn 0.000000 1.000000 0.000000
vn 0.476760 -0.301328 0.825773
vn 0.953521 -0.301328 0.000000
vn 0.000000 1.000000 0.000000
vn 0.953521 -0.301328 0.000000
vn 0.476760 -0.301328 -0.825773
vn 0.000000 1.000000 0.000000
s off
g pCone1
usemtl initialShadingGroup
f 1/1/1 6/6/2 5/5/3 4/4/4 3/3/5 2/2/6
f 1/7/7 2/8/8 7/14/9
f 2/8/10 3/9/11 7/14/12
f 3/9/13 4/10/14 7/14/15
f 4/10/16 5/11/17 7/14/18
f 5/11/19 6/12/20 7/14/21
f 6/12/22 1/13/23 7/14/24
