# This file uses centimeters as units for non-parametric coordinates.

mtllib cube.mtl
g default
v -2.500000 -2.500000 2.500000
v 2.500000 -2.500000 2.500000
v -2.500000 2.500000 2.500000
v 2.500000 2.500000 2.500000
v -2.500000 2.500000 -2.500000
v 2.500000 2.500000 -2.500000
v -2.500000 -2.500000 -2.500000
v 2.500000 -2.500000 -2.500000
vt 0.030075 0.029872
vt 0.295766 0.029872
vt 0.295766 0.295563
vt 0.030075 0.295563
vt 0.368210 0.030177
vt 0.633901 0.030177
vt 0.633901 0.295868
vt 0.368210 0.295868
vt 0.704234 0.030481
vt 0.969925 0.030481
vt 0.969925 0.296172
vt 0.704234 0.296172
vt 0.700007 0.365590
vt 0.965698 0.365590
vt 0.965698 0.631281
vt 0.700007 0.631281
vt 0.030075 0.365895
vt 0.295766 0.365895
vt 0.295766 0.631586
vt 0.030075 0.631586
vt 0.368210 0.697690
vt 0.633901 0.697690
vt 0.633901 0.963381
vt 0.368210 0.963381
vn 0.000000 0.000000 1.000000
vn 0.000000 0.000000 1.000000
vn 0.000000 0.000000 1.000000
vn 0.000000 0.000000 1.000000
vn 0.000000 1.000000 0.000000
vn 0.000000 1.000000 0.000000
vn 0.000000 1.000000 0.000000
vn 0.000000 1.000000 0.000000
vn 0.000000 0.000000 -1.000000
vn 0.000000 0.000000 -1.000000
vn 0.000000 0.000000 -1.000000
vn 0.000000 0.000000 -1.000000
vn 0.000000 -1.000000 0.000000
vn 0.000000 -1.000000 0.000000
vn 0.000000 -1.000000 0.000000
vn 0.000000 -1.000000 0.000000
vn 1.000000 0.000000 0.000000
vn 1.000000 0.000000 0.000000
vn 1.000000 0.000000 0.000000
vn 1.000000 0.000000 0.000000
vn -1.000000 0.000000 0.000000
vn -1.000000 0.000000 0.000000
vn -1.000000 0.000000 0.000000
vn -1.000000 0.000000 0.000000
s off
g pCube1
usemtl initialShadingGroup
f 1/1/1 2/2/2 4/3/3 3/4/4
f 3/5/5 4/6/6 6/7/7 5/8/8
f 5/9/9 6/10/10 8/11/11 7/12/12
f 7/13/13 8/14/14 2/15/15 1/16/16
f 2/17/17 8/18/18 6/19/19 4/20/20
f 7/21/21 1/22/22 3/23/23 5/24/24
