# This file uses centimeters as units for non-parametric coordinates.

mtllib cube-plane_m128.mtl
v -10.000000 -0.000000 10.000000
v 10.000000 -0.000000 10.000000
v -10.000000 0.000000 -10.000000
v 10.000000 0.000000 -10.000000
vt 0.015504 0.015504
vt 0.984496 0.015504
vt 0.984496 0.984496
vt 0.015504 0.984496
vn 0.000000 1.000000 0.000000
vn 0.000000 1.000000 0.000000
vn 0.000000 1.000000 0.000000
vn 0.000000 1.000000 0.000000
s off
g pPlane1
usemtl initialShadingGroup
f 1/1/1 2/2/2 4/3/3 3/4/4
v -1.850535 0.024549 1.037074
v 1.037074 0.024549 1.850535
v -1.850535 3.024549 1.037074
v 1.037074 3.024549 1.850535
v -1.037074 3.024549 -1.850535
v 1.850535 3.024549 -1.037074
v -1.037074 0.024549 -1.850535
v 1.850535 0.024549 -1.037074
vt 0.342710 0.406162
vt 0.635735 0.406162
vt 0.635735 0.698511
vt 0.342710 0.698511
vt 0.509508 0.377429
vt 0.426961 0.096032
vt 0.719986 0.016760
vt 0.802533 0.298157
vt 0.691471 0.367381
vt 0.984496 0.367381
vt 0.984496 0.659731
vt 0.691471 0.659731
vt 0.015504 0.296901
vt 0.098051 0.015504
vt 0.391076 0.094776
vt 0.308529 0.376173
vt 0.015504 0.409933
vt 0.308529 0.409933
vt 0.308529 0.702283
vt 0.015504 0.702283
vt 0.665999 0.692146
vt 0.959025 0.692146
vt 0.959025 0.984496
vt 0.665999 0.984496
vn -0.271154 0.000000 0.962536
vn -0.271154 0.000000 0.962536
vn -0.271154 0.000000 0.962536
vn -0.271154 0.000000 0.962536
vn 0.000000 1.000000 0.000000
vn 0.000000 1.000000 0.000000
vn 0.000000 1.000000 0.000000
vn 0.000000 1.000000 0.000000
vn 0.271154 0.000000 -0.962536
vn 0.271154 0.000000 -0.962536
vn 0.271154 0.000000 -0.962536
vn 0.271154 0.000000 -0.962536
vn 0.000000 -1.000000 0.000000
vn 0.000000 -1.000000 0.000000
vn 0.000000 -1.000000 0.000000
vn 0.000000 -1.000000 0.000000
vn 0.962536 0.000000 0.271154
vn 0.962536 0.000000 0.271154
vn 0.962536 0.000000 0.271154
vn 0.962536 0.000000 0.271154
vn -0.962536 0.000000 -0.271154
vn -0.962536 0.000000 -0.271154
vn -0.962536 0.000000 -0.271154
vn -0.962536 0.000000 -0.271154
s off
g pCube1
f 5/5/5 6/6/6 8/7/7 7/8/8
f 7/9/9 8/10/10 10/11/11 9/12/12
f 9/13/13 10/14/14 12/15/15 11/16/16
f 11/17/17 12/18/18 6/19/19 5/20/20
f 6/21/21 12/22/22 10/23/23 8/24/24
f 11/25/25 5/26/26 7/27/27 9/28/28
