# This file uses centimeters as units for non-parametric coordinates.

mtllib cube-plane2.mtl
g default
v -10.000000 -0.000000 10.000000
v 10.000000 -0.000000 10.000000
v -10.000000 0.000000 -10.000000
v 10.000000 0.000000 -10.000000
v -1.599749 1.143249 0.266913
v 0.040660 0.020255 0.047957
v -0.603780 2.356447 1.506347
v 1.036629 1.233452 1.287391
v -0.040660 3.482073 -0.047957
v 1.599749 2.359078 -0.266913
v -1.036629 2.268875 -1.287391
v 0.603780 1.145881 -1.506347
vt 0.001992 0.001992
vt 0.901723 0.001992
vt 0.901723 0.846642
vt 0.001992 0.846642
vt 0.001992 0.899234
vt 0.075788 0.851807
vt 0.120594 0.903043
vt 0.046797 0.950470
vt 0.145926 0.950581
vt 0.072130 0.998008
vt 0.924212 0.830340
vt 0.998008 0.877767
vt 0.953203 0.929003
vt 0.879406 0.881576
vt 0.927870 0.976541
vt 0.854074 0.929114
vt 0.150520 0.917016
vt 0.201158 0.851374
vt 0.255735 0.903718
vt 0.205097 0.969361
vt 0.308645 0.970921
vt 0.258007 0.905279
vt 0.312585 0.852934
vt 0.363223 0.918576
vn 0.000000 1.000000 0.000000
vn 0.000000 1.000000 0.000000
vn 0.000000 1.000000 0.000000
vn 0.000000 1.000000 0.000000
vn -0.281560 -0.562813 0.777152
vn -0.281560 -0.562813 0.777152
vn -0.281560 -0.562813 0.777152
vn -0.281560 -0.562813 0.777152
vn 0.497984 0.606599 0.619717
vn 0.497984 0.606599 0.619717
vn 0.497984 0.606599 0.619717
vn 0.497984 0.606599 0.619717
vn 0.281560 0.562813 -0.777152
vn 0.281560 0.562813 -0.777152
vn 0.281560 0.562813 -0.777152
vn 0.281560 0.562813 -0.777152
vn -0.497984 -0.606599 -0.619717
vn -0.497984 -0.606599 -0.619717
vn -0.497984 -0.606599 -0.619717
vn -0.497984 -0.606599 -0.619717
vn 0.820204 -0.561497 -0.109478
vn 0.820204 -0.561497 -0.109478
vn 0.820204 -0.561497 -0.109478
vn 0.820204 -0.561497 -0.109478
vn -0.820204 0.561497 0.109478
vn -0.820204 0.561497 0.109478
vn -0.820204 0.561497 0.109478
vn -0.820204 0.561497 0.109478
s off
g polySurface1
usemtl initialShadingGroup
f 1/1/1 2/2/2 4/3/3 3/4/4
f 5/5/5 6/6/6 8/7/7 7/8/8
f 7/8/9 8/7/10 10/9/11 9/10/12
f 9/11/13 10/12/14 12/13/15 11/14/16
f 11/14/17 12/13/18 6/15/19 5/16/20
f 6/17/21 12/18/22 10/19/23 8/20/24
f 11/21/25 5/22/26 7/23/27 9/24/28
