# This file uses centimeters as units for non-parametric coordinates.

mtllib cube-plane.mtl
g default
v -10.000000 -0.000000 10.000000
v 10.000000 -0.000000 10.000000
v -10.000000 0.000000 -10.000000
v 10.000000 0.000000 -10.000000
v -1.000000 0.300000 1.000000
v 1.000000 0.300000 1.000000
v -1.000000 2.300000 1.000000
v 1.000000 2.300000 1.000000
v -1.000000 2.300000 -1.000000
v 1.000000 2.300000 -1.000000
v -1.000000 0.300000 -1.000000
v 1.000000 0.300000 -1.000000
v 0.000000 -0.000000 10.000000
v -5.000000 0.000000 0.000000
v 5.000000 0.000000 0.000000
v 0.000000 0.000000 0.000000
v 0.000000 0.000000 -10.000000
v 3.003419 -0.000000 3.993162
vt 0.003968 0.003968
vt 0.996032 0.003968
vt 0.996032 0.896891
vt 0.003968 0.896891
vt 0.003968 0.905721
vt 0.103175 0.905721
vt 0.103175 0.995013
vt 0.003968 0.995013
vt 0.438857 0.996032
vt 0.438857 0.906740
vt 0.538063 0.906740
vt 0.538063 0.996032
vt 0.548577 0.995259
vt 0.548577 0.905967
vt 0.647783 0.905967
vt 0.647783 0.995259
vt 0.111693 0.903875
vt 0.210900 0.903875
vt 0.210900 0.993167
vt 0.111693 0.993167
vt 0.219418 0.905721
vt 0.318624 0.905721
vt 0.318624 0.995013
vt 0.219418 0.995013
vt 0.329138 0.905721
vt 0.428344 0.905721
vt 0.428344 0.995013
vt 0.329138 0.995013
vt 0.500000 0.003968
vt 0.251984 0.450430
vt 0.748016 0.450430
vt 0.500000 0.450430
vt 0.500000 0.896891
vt 0.648979 0.272150
vn 0.000000 1.000000 0.000000
vn 0.000000 1.000000 0.000000
vn 0.000000 1.000000 0.000000
vn 0.000000 1.000000 0.000000
vn 0.000000 0.000000 1.000000
vn 0.000000 0.000000 1.000000
vn 0.000000 0.000000 1.000000
vn 0.000000 0.000000 1.000000
vn 0.000000 1.000000 0.000000
vn 0.000000 1.000000 0.000000
vn 0.000000 1.000000 0.000000
vn 0.000000 1.000000 0.000000
vn 0.000000 0.000000 -1.000000
vn 0.000000 0.000000 -1.000000
vn 0.000000 0.000000 -1.000000
vn 0.000000 0.000000 -1.000000
vn 0.000000 -1.000000 0.000000
vn 0.000000 -1.000000 0.000000
vn 0.000000 -1.000000 0.000000
vn 0.000000 -1.000000 0.000000
vn 1.000000 0.000000 0.000000
vn 1.000000 0.000000 0.000000
vn 1.000000 0.000000 0.000000
vn 1.000000 0.000000 0.000000
vn -1.000000 0.000000 0.000000
vn -1.000000 0.000000 0.000000
vn -1.000000 0.000000 0.000000
vn -1.000000 0.000000 0.000000
vn 0.000000 1.000000 0.000000
vn 0.000000 1.000000 0.000000
vn 0.000000 1.000000 0.000000
vn 0.000000 1.000000 0.000000
vn 0.000000 1.000000 0.000000
vn 0.000000 1.000000 0.000000
vn 0.000000 1.000000 0.000000
vn 0.000000 1.000000 0.000000
vn 0.000000 1.000000 0.000000
vn 0.000000 1.000000 0.000000
vn 0.000000 1.000000 0.000000
vn 0.000000 1.000000 0.000000
vn 0.000000 1.000000 0.000000
vn 0.000000 1.000000 0.000000
vn 0.000000 1.000000 0.000000
vn 0.000000 1.000000 0.000000
vn 0.000000 1.000000 0.000000
vn 0.000000 1.000000 0.000000
vn 0.000000 1.000000 0.000000
vn 0.000000 1.000000 0.000000
vn 0.000000 1.000000 0.000000
vn 0.000000 1.000000 0.000000
s off
g polySurface1
usemtl initialShadingGroup
f 16/32/1 17/33/2 3/4/3 14/30/4
f 5/5/5 6/6/6 8/7/7 7/8/8
f 7/9/9 8/10/10 10/11/11 9/12/12
f 9/13/13 10/14/14 12/15/15 11/16/16
f 11/17/17 12/18/18 6/19/19 5/20/20
f 6/21/21 12/22/22 10/23/23 8/24/24
f 11/25/25 5/26/26 7/27/27 9/28/28
f 1/1/29 13/29/30 14/30/31 3/4/32
f 13/29/33 2/2/34 4/3/35 15/31/36 18/34/37
f 13/29/38 16/32/39 14/30/40
f 18/34/41 15/31/42 16/32/43
f 15/31/44 4/3/45 17/33/46 16/32/47
f 13/29/48 18/34/49 16/32/50
