# This file uses centimeters as units for non-parametric coordinates.

mtllib die.mtl
g default
v -0.500000 -0.500000 0.500000
v 0.500000 -0.500000 0.500000
v -0.500000 0.500000 0.500000
v 0.500000 0.500000 0.500000
v -0.500000 0.500000 -0.500000
v 0.500000 0.500000 -0.500000
v -0.500000 -0.500000 -0.500000
v 0.500000 -0.500000 -0.500000
vt 0.352681 -0.007661
vt 0.615006 -0.007661
vt 0.615006 0.254663
vt 0.352681 0.254663
vt 0.361952 0.235658
vt 0.624277 0.235658
vt 0.624277 0.497983
vt 0.361952 0.497983
vt 0.693832 0.503513
vt 0.956157 0.503513
vt 0.956157 0.765837
vt 0.693832 0.765837
vt 0.359494 0.489023
vt 0.621819 0.489023
vt 0.621819 0.751348
vt 0.359494 0.751348
vt 0.020208 0.494220
vt 0.282532 0.494220
vt 0.282532 0.756545
vt 0.020208 0.756545
vt 0.349154 0.745582
vt 0.611479 0.745582
vt 0.611479 1.007907
vt 0.349154 1.007907
vn 0.000000 0.000000 1.000000
vn 0.000000 0.000000 1.000000
vn 0.000000 0.000000 1.000000
vn 0.000000 0.000000 1.000000
vn 0.000000 1.000000 0.000000
vn 0.000000 1.000000 0.000000
vn 0.000000 1.000000 0.000000
vn 0.000000 1.000000 0.000000
vn 0.000000 0.000000 -1.000000
vn 0.000000 0.000000 -1.000000
vn 0.000000 0.000000 -1.000000
vn 0.000000 0.000000 -1.000000
vn 0.000000 -1.000000 0.000000
vn 0.000000 -1.000000 0.000000
vn 0.000000 -1.000000 0.000000
vn 0.000000 -1.000000 0.000000
vn 1.000000 0.000000 0.000000
vn 1.000000 0.000000 0.000000
vn 1.000000 0.000000 0.000000
vn 1.000000 0.000000 0.000000
vn -1.000000 0.000000 0.000000
vn -1.000000 0.000000 0.000000
vn -1.000000 0.000000 0.000000
vn -1.000000 0.000000 0.000000
s off
g pCube1
usemtl lambert2SG
f 1/1/1 2/2/2 4/3/3 3/4/4
f 3/5/5 4/6/6 6/7/7 5/8/8
f 5/9/9 6/10/10 8/11/11 7/12/12
f 7/13/13 8/14/14 2/15/15 1/16/16
f 2/17/17 8/18/18 6/19/19 4/20/20
f 7/21/21 1/22/22 3/23/23 5/24/24
