# This file uses centimeters as units for non-parametric coordinates.

mtllib paraone.mtl
g default
v 2.500000 -0.000000 2.500000
v -2.500000 0.000000 -2.500000
v 2.500000 0.000000 -2.500000
vt 1.000000 0.000000
vt 0.000000 1.000000
vt 1.000000 1.000000
vn 0.000000 1.000000 0.000000
vn 0.000000 1.000000 0.000000
vn 0.000000 1.000000 0.000000
s off
g pPlane1
usemtl initialShadingGroup
f 2/2/1 1/1/2 3/3/3
g default
v -2.500000 0.198555 -2.500000
v 2.500000 0.198555 2.500000
v 2.500000 0.198555 -2.500000
vt 1.000000 0.000000
vt 0.000000 1.000000
vt 1.000000 1.000000
vn -0.000000 -1.000000 0.000000
vn -0.000000 -1.000000 0.000000
vn -0.000000 -1.000000 0.000000
s off
g pPlane2
usemtl initialShadingGroup
f 5/5/4 4/4/5 6/6/6
