# This file uses centimeters as units for non-parametric coordinates.

mtllib planes.mtl
v -3.082204 -0.000000 1.501404
v -0.079397 -0.000000 1.501404
v -3.082204 0.000000 -1.501404
v -0.079397 0.000000 -1.501404
vt 0.000000 0.000000
vt 1.000000 0.000000
vt 0.000000 1.000000
vt 1.000000 1.000000
vn 0.000000 1.000000 0.000000
vn 0.000000 1.000000 0.000000
vn 0.000000 1.000000 0.000000
vn 0.000000 1.000000 0.000000
s off
g pPlane1
usemtl initialShadingGroup
f 1/1/1 2/2/2 4/4/3 3/3/4
v 0.086192 -0.000000 1.271649
v 2.629490 -0.000000 1.271649
v 0.086192 0.000000 -1.271649
v 2.629490 0.000000 -1.271649
vt 0.000000 0.000000
vt 0.500000 0.000000
vt 0.000000 0.500000
vt 0.500000 0.500000
vn 0.000000 1.000000 0.000000
vn 0.000000 1.000000 0.000000
vn 0.000000 1.000000 0.000000
vn 0.000000 1.000000 0.000000
s off
g pPlane2
f 5/5/5 6/6/6 8/8/7 7/7/8
