# This file uses centimeters as units for non-parametric coordinates.

mtllib simplesolids.mtl
v -1.671335 -0.420266 1.716277
v -0.818850 -0.758362 1.317578
v -1.252834 0.478166 1.849230
v -0.400350 0.140070 1.450531
v -1.566087 0.758362 0.941836
v -0.713603 0.420266 0.543138
v -1.984588 -0.140070 0.808883
v -1.132103 -0.478166 0.410184
vt 0.375000 0.000000
vt 0.625000 0.000000
vt 0.375000 0.250000
vt 0.625000 0.250000
vt 0.375000 0.500000
vt 0.625000 0.500000
vt 0.375000 0.750000
vt 0.625000 0.750000
vt 0.375000 1.000000
vt 0.625000 1.000000
vt 0.875000 0.000000
vt 0.875000 0.250000
vt 0.125000 0.000000
vt 0.125000 0.250000
vn 0.313253 -0.280196 0.907393
vn 0.313253 -0.280196 0.907393
vn 0.313253 -0.280196 0.907393
vn 0.313253 -0.280196 0.907393
vn 0.418500 0.898433 0.132953
vn 0.418500 0.898433 0.132953
vn 0.418500 0.898433 0.132953
vn 0.418500 0.898433 0.132953
vn -0.313253 0.280196 -0.907393
vn -0.313253 0.280196 -0.907393
vn -0.313253 0.280196 -0.907393
vn -0.313253 0.280196 -0.907393
vn -0.418500 -0.898433 -0.132953
vn -0.418500 -0.898433 -0.132953
vn -0.418500 -0.898433 -0.132953
vn -0.418500 -0.898433 -0.132953
vn 0.852485 -0.338096 -0.398699
vn 0.852485 -0.338096 -0.398699
vn 0.852485 -0.338096 -0.398699
vn 0.852485 -0.338096 -0.398699
vn -0.852485 0.338096 0.398699
vn -0.852485 0.338096 0.398699
vn -0.852485 0.338096 0.398699
vn -0.852485 0.338096 0.398699
s off
g pCube1
usemtl initialShadingGroup
f 1/1/1 2/2/2 4/4/3 3/3/4
f 3/3/5 4/4/6 6/6/7 5/5/8
f 5/5/9 6/6/10 8/8/11 7/7/12
f 7/7/13 8/8/14 2/10/15 1/9/16
f 2/2/17 8/11/18 6/12/19 4/4/20
f 7/13/21 1/1/22 3/3/23 5/14/24
v 1.004184 -0.353553 -0.518822
v 0.297077 -0.353553 0.188284
v 1.004184 -0.353553 0.895391
v 1.711291 -0.353553 0.188285
v 1.004184 0.353553 0.188285
vt 0.500000 0.000000
vt 0.250000 0.250000
vt 0.500000 0.500000
vt 0.750000 0.250000
vt 0.250000 0.500000
vt 0.375000 0.500000
vt 0.500000 0.500000
vt 0.625000 0.500000
vt 0.750000 0.500000
vt 0.500000 1.000000
vn 0.000000 -1.000000 0.000000
vn 0.000000 -1.000000 0.000000
vn 0.000000 -1.000000 0.000000
vn 0.000000 -1.000000 0.000000
vn -0.577350 0.577350 -0.577350
vn -0.577350 0.577350 -0.577350
vn -0.577350 0.577350 -0.577350
vn -0.577350 0.577350 0.577350
vn -0.577350 0.577350 0.577350
vn -0.577350 0.577350 0.577350
vn 0.577350 0.577350 0.577350
vn 0.577350 0.577350 0.577350
vn 0.577350 0.577350 0.577350
vn 0.577350 0.577350 -0.577350
vn 0.577350 0.577350 -0.577350
vn 0.577350 0.577350 -0.577350
s off
g pPyramid1
f 9/15/25 12/18/26 11/17/27 10/16/28
f 9/19/29 10/20/30 13/24/31
f 10/20/32 11/21/33 13/24/34
f 11/21/35 12/22/36 13/24/37
f 12/22/38 9/23/39 13/24/40
v -2.006276 -0.500000 -2.309540
v -2.006276 -0.500000 -0.577489
v -0.506276 -0.500000 -1.443515
v -2.006276 0.500000 -2.309540
v -2.006276 0.500000 -0.577489
v -0.506276 0.500000 -1.443515
v -1.506276 -0.911023 -1.443515
v -1.506276 0.956728 -1.443515
vt 0.421875 0.020934
vt 0.421875 0.291566
vt 0.656250 0.156250
vt 0.375000 0.312500
vt 0.458333 0.312500
vt 0.541667 0.312500
vt 0.625000 0.312500
vt 0.375000 0.688440
vt 0.458333 0.688440
vt 0.541667 0.688440
vt 0.625000 0.688440
vt 0.421875 0.708434
vt 0.421875 0.979066
vt 0.656250 0.843750
vt 0.500000 0.150000
vt 0.500000 0.837500
vn -1.000000 0.000000 -0.000000
vn -1.000000 0.000000 -0.000000
vn -1.000000 0.000000 -0.000000
vn -1.000000 0.000000 -0.000000
vn 0.500000 0.000000 0.866025
vn 0.500000 0.000000 0.866025
vn 0.500000 0.000000 0.866025
vn 0.500000 0.000000 0.866025
vn 0.500000 0.000000 -0.866025
vn 0.500000 0.000000 -0.866025
vn 0.500000 0.000000 -0.866025
vn 0.500000 0.000000 -0.866025
vn -0.635025 -0.772492 0.000000
vn -0.635025 -0.772492 0.000000
vn -0.635025 -0.772492 0.000000
vn 0.317512 -0.772492 0.549948
vn 0.317512 -0.772492 0.549948
vn 0.317512 -0.772492 0.549948
vn 0.317512 -0.772492 -0.549947
vn 0.317512 -0.772492 -0.549947
vn 0.317512 -0.772492 -0.549947
vn -0.674435 0.738334 0.000000
vn -0.674435 0.738334 0.000000
vn -0.674435 0.738334 0.000000
vn 0.337218 0.738334 0.584078
vn 0.337218 0.738334 0.584078
vn 0.337218 0.738334 0.584078
vn 0.337218 0.738334 -0.584078
vn 0.337218 0.738334 -0.584078
vn 0.337218 0.738334 -0.584078
s off
g pCylinder1
f 14/28/41 15/29/42 18/33/43 17/32/44
f 15/29/45 16/30/46 19/34/47 18/33/48
f 16/30/49 14/31/50 17/35/51 19/34/52
f 15/26/53 14/25/54 20/39/55
f 16/27/56 15/26/57 20/39/58
f 14/25/59 16/27/60 20/39/61
f 17/37/62 18/36/63 21/40/64
f 18/36/65 19/38/66 21/40/67
f 19/38/68 17/37/69 21/40/70
